<mxfile host="app.diagrams.net" agent="Mozilla/5.0 (Windows NT 10.0; Win64; x64) AppleWebKit/537.36 (KHTML, like Gecko) Chrome/136.0.0.0 Safari/537.36" version="27.0.5">
  <diagram name="PÃ¡gina-1" id="6ckBfNMIDA11JNjc7dYw">
    <mxGraphModel dx="1281" dy="562" grid="1" gridSize="10" guides="1" tooltips="1" connect="1" arrows="1" fold="1" page="1" pageScale="1" pageWidth="827" pageHeight="1169" math="0" shadow="0">
      <root>
        <mxCell id="0" />
        <mxCell id="1" parent="0" />
        <mxCell id="T1g5qeLb-utoZhtCGGai-1" value="Restaurantes" style="whiteSpace=wrap;html=1;align=center;" parent="1" vertex="1">
          <mxGeometry x="560" y="40" width="100" height="40" as="geometry" />
        </mxCell>
        <mxCell id="T1g5qeLb-utoZhtCGGai-3" value="Usuarios" style="whiteSpace=wrap;html=1;align=center;" parent="1" vertex="1">
          <mxGeometry x="80" y="40" width="100" height="40" as="geometry" />
        </mxCell>
        <mxCell id="T1g5qeLb-utoZhtCGGai-5" value="Reservan" style="shape=rhombus;perimeter=rhombusPerimeter;whiteSpace=wrap;html=1;align=center;" parent="1" vertex="1">
          <mxGeometry x="310" y="30" width="120" height="60" as="geometry" />
        </mxCell>
        <mxCell id="T1g5qeLb-utoZhtCGGai-6" value="" style="endArrow=none;html=1;rounded=0;exitX=0.102;exitY=1.085;exitDx=0;exitDy=0;exitPerimeter=0;" parent="1" edge="1">
          <mxGeometry relative="1" as="geometry">
            <mxPoint x="90.20000000000005" y="79.99999999999997" as="sourcePoint" />
            <mxPoint x="90" y="220" as="targetPoint" />
          </mxGeometry>
        </mxCell>
        <mxCell id="T1g5qeLb-utoZhtCGGai-8" value="" style="endArrow=none;html=1;rounded=0;exitX=0.095;exitY=0.583;exitDx=0;exitDy=0;exitPerimeter=0;" parent="1" source="T1g5qeLb-utoZhtCGGai-5" edge="1">
          <mxGeometry relative="1" as="geometry">
            <mxPoint x="330" y="290" as="sourcePoint" />
            <mxPoint x="321" y="200" as="targetPoint" />
          </mxGeometry>
        </mxCell>
        <mxCell id="T1g5qeLb-utoZhtCGGai-9" value="" style="endArrow=none;html=1;rounded=0;exitX=0.102;exitY=1.085;exitDx=0;exitDy=0;exitPerimeter=0;" parent="1" edge="1">
          <mxGeometry relative="1" as="geometry">
            <mxPoint x="570" y="80" as="sourcePoint" />
            <mxPoint x="570" y="190" as="targetPoint" />
          </mxGeometry>
        </mxCell>
        <mxCell id="T1g5qeLb-utoZhtCGGai-10" value="" style="endArrow=none;html=1;rounded=0;exitX=1;exitY=0.5;exitDx=0;exitDy=0;entryX=0;entryY=0.5;entryDx=0;entryDy=0;" parent="1" source="T1g5qeLb-utoZhtCGGai-3" target="T1g5qeLb-utoZhtCGGai-5" edge="1">
          <mxGeometry relative="1" as="geometry">
            <mxPoint x="330" y="290" as="sourcePoint" />
            <mxPoint x="490" y="290" as="targetPoint" />
          </mxGeometry>
        </mxCell>
        <mxCell id="T1g5qeLb-utoZhtCGGai-11" value="" style="endArrow=none;html=1;rounded=0;exitX=1;exitY=0.5;exitDx=0;exitDy=0;entryX=0;entryY=0.5;entryDx=0;entryDy=0;" parent="1" source="T1g5qeLb-utoZhtCGGai-5" target="T1g5qeLb-utoZhtCGGai-1" edge="1">
          <mxGeometry relative="1" as="geometry">
            <mxPoint x="330" y="290" as="sourcePoint" />
            <mxPoint x="490" y="290" as="targetPoint" />
          </mxGeometry>
        </mxCell>
        <mxCell id="T1g5qeLb-utoZhtCGGai-12" value="nombre" style="ellipse;whiteSpace=wrap;html=1;align=center;" parent="1" vertex="1">
          <mxGeometry x="90" y="90" width="90" height="20" as="geometry" />
        </mxCell>
        <mxCell id="T1g5qeLb-utoZhtCGGai-13" value="apellidos" style="ellipse;whiteSpace=wrap;html=1;align=center;" parent="1" vertex="1">
          <mxGeometry x="90" y="120" width="90" height="20" as="geometry" />
        </mxCell>
        <mxCell id="T1g5qeLb-utoZhtCGGai-14" value="telefono" style="ellipse;whiteSpace=wrap;html=1;align=center;" parent="1" vertex="1">
          <mxGeometry x="90" y="150" width="90" height="20" as="geometry" />
        </mxCell>
        <mxCell id="T1g5qeLb-utoZhtCGGai-15" value="email" style="ellipse;whiteSpace=wrap;html=1;align=center;" parent="1" vertex="1">
          <mxGeometry x="90" y="180" width="90" height="20" as="geometry" />
        </mxCell>
        <mxCell id="T1g5qeLb-utoZhtCGGai-16" value="fecha" style="ellipse;whiteSpace=wrap;html=1;align=center;" parent="1" vertex="1">
          <mxGeometry x="320" y="100" width="90" height="20" as="geometry" />
        </mxCell>
        <mxCell id="T1g5qeLb-utoZhtCGGai-17" value="hora" style="ellipse;whiteSpace=wrap;html=1;align=center;" parent="1" vertex="1">
          <mxGeometry x="320" y="130" width="90" height="20" as="geometry" />
        </mxCell>
        <mxCell id="T1g5qeLb-utoZhtCGGai-18" value="n_personas" style="ellipse;whiteSpace=wrap;html=1;align=center;" parent="1" vertex="1">
          <mxGeometry x="320" y="160" width="90" height="20" as="geometry" />
        </mxCell>
        <mxCell id="T1g5qeLb-utoZhtCGGai-19" value="nombre" style="ellipse;whiteSpace=wrap;html=1;align=center;" parent="1" vertex="1">
          <mxGeometry x="570" y="90" width="90" height="20" as="geometry" />
        </mxCell>
        <mxCell id="T1g5qeLb-utoZhtCGGai-20" value="direccion" style="ellipse;whiteSpace=wrap;html=1;align=center;" parent="1" vertex="1">
          <mxGeometry x="570" y="120" width="90" height="20" as="geometry" />
        </mxCell>
        <mxCell id="T1g5qeLb-utoZhtCGGai-21" value="(1:N)" style="text;html=1;align=center;verticalAlign=middle;resizable=0;points=[];autosize=1;strokeColor=none;fillColor=none;" parent="1" vertex="1">
          <mxGeometry x="175" y="28" width="50" height="30" as="geometry" />
        </mxCell>
        <mxCell id="T1g5qeLb-utoZhtCGGai-22" value="(1:N)" style="text;html=1;align=center;verticalAlign=middle;resizable=0;points=[];autosize=1;strokeColor=none;fillColor=none;" parent="1" vertex="1">
          <mxGeometry x="510" y="28" width="50" height="30" as="geometry" />
        </mxCell>
        <mxCell id="t2SwCLhyxZAg0vlE2Om1-1" value="tipo" style="ellipse;whiteSpace=wrap;html=1;align=center;" vertex="1" parent="1">
          <mxGeometry x="570" y="150" width="90" height="20" as="geometry" />
        </mxCell>
      </root>
    </mxGraphModel>
  </diagram>
</mxfile>
